<?xml version="1.0" encoding="UTF-8"?>
<!DOCTYPE svg PUBLIC "-//W3C//DTD SVG 1.1//EN" "http://www.w3.org/Graphics/SVG/1.1/DTD/svg11.dtd">
<svg xmlns="http://www.w3.org/2000/svg" version="1.1" width="1080px" height="1080px" style="shape-rendering:geometricPrecision; text-rendering:geometricPrecision; image-rendering:optimizeQuality; fill-rule:evenodd; clip-rule:evenodd" xmlns:xlink="http://www.w3.org/1999/xlink">
<g><path style="opacity:1" fill="#000523" d="M -0.5,-0.5 C 359.5,-0.5 719.5,-0.5 1079.5,-0.5C 1079.5,359.5 1079.5,719.5 1079.5,1079.5C 719.5,1079.5 359.5,1079.5 -0.5,1079.5C -0.5,719.5 -0.5,359.5 -0.5,-0.5 Z"/></g>
<g><path style="opacity:1" fill="#1ac5e5" d="M 778.5,390.5 C 778.903,393.486 779.903,396.152 781.5,398.5C 784.024,411.153 786.191,423.819 788,436.5C 788.754,455.517 788.588,474.517 787.5,493.5C 785.55,500.596 784.216,507.929 783.5,515.5C 783.5,515.833 783.5,516.167 783.5,516.5C 782.076,518.515 781.41,520.848 781.5,523.5C 780.566,524.568 780.232,525.901 780.5,527.5C 779.076,529.515 778.41,531.848 778.5,534.5C 776.796,537.939 775.462,541.605 774.5,545.5C 749.387,613.449 703.721,662.283 637.5,692C 598.074,708.348 557.074,714.515 514.5,710.5C 504.649,708.472 494.649,706.805 484.5,705.5C 478.717,704.638 473.05,703.304 467.5,701.5C 467.389,700.883 467.056,700.383 466.5,700C 462.553,698.516 458.553,697.35 454.5,696.5C 388.6,671.77 340.766,627.437 311,563.5C 302.979,546.269 297.479,528.269 294.5,509.5C 293.398,498.332 292.065,487.332 290.5,476.5C 290.5,464.167 290.5,451.833 290.5,439.5C 292.235,432.736 293.235,425.736 293.5,418.5C 294.249,410.846 295.916,403.513 298.5,396.5C 300.943,391.5 302.61,386.166 303.5,380.5C 325.681,319.147 365.348,272.647 422.5,241C 501.7,202.412 580.7,203.079 659.5,243C 718.518,276.522 758.185,325.688 778.5,390.5 Z"/></g>
<g><path style="opacity:1" fill="#fefefe" d="M 657.5,353.5 C 659.548,367.817 660.215,382.15 659.5,396.5C 657.88,398.984 655.547,400.484 652.5,401C 647.5,401.333 642.5,401.667 637.5,402C 635.333,404.833 633.167,407.667 631,410.5C 617.673,442.441 604.339,474.441 591,506.5C 580.002,527.13 570.336,548.463 562,570.5C 560.2,572.317 558.034,573.484 555.5,574C 538.5,574.667 521.5,574.667 504.5,574C 503.421,573.044 502.255,572.211 501,571.5C 497.016,563.531 493.016,555.531 489,547.5C 486.729,539.352 484.062,531.352 481,523.5C 472.016,504.197 463.016,484.864 454,465.5C 445.745,443.215 436.245,421.548 425.5,400.5C 420.978,399.074 416.645,399.574 412.5,402C 406.487,403.335 403.32,400.835 403,394.5C 402.333,381.5 402.333,368.5 403,355.5C 403.5,354.333 404.333,353.5 405.5,353C 438.833,352.333 472.167,352.333 505.5,353C 508.451,353.096 511.118,353.929 513.5,355.5C 516.542,370.292 516.042,384.959 512,399.5C 506.917,400.307 501.75,400.807 496.5,401C 495.106,401.956 494.439,403.289 494.5,405C 502.129,422.077 509.296,439.243 516,456.5C 519.929,467.683 523.263,479.016 526,490.5C 529.785,494.647 533.119,494.313 536,489.5C 544.142,469.07 551.476,448.403 558,427.5C 561.964,420.566 565.13,413.233 567.5,405.5C 567.61,403.626 566.944,402.126 565.5,401C 560.505,401.082 555.505,401.082 550.5,401C 549.15,399.282 547.983,397.448 547,395.5C 546.119,382.125 546.452,368.791 548,355.5C 548.833,354.667 549.667,353.833 550.5,353C 586.208,352.18 621.875,352.347 657.5,353.5 Z"/></g>
<g><path style="opacity:1" fill="#107e9d" d="M 303.5,380.5 C 302.61,386.166 300.943,391.5 298.5,396.5C 299.39,390.834 301.057,385.5 303.5,380.5 Z"/></g>
<g><path style="opacity:1" fill="#bceef7" d="M 657.5,353.5 C 658.6,355.277 659.434,357.277 660,359.5C 660.247,368.853 660.747,378.186 661.5,387.5C 661.14,390.702 660.474,393.702 659.5,396.5C 660.215,382.15 659.548,367.817 657.5,353.5 Z"/></g>
<g><path style="opacity:1" fill="#094665" d="M 778.5,390.5 C 780.397,392.698 781.397,395.364 781.5,398.5C 779.903,396.152 778.903,393.486 778.5,390.5 Z"/></g>
<g><path style="opacity:1" fill="#0f7493" d="M 293.5,418.5 C 293.235,425.736 292.235,432.736 290.5,439.5C 290.678,432.251 291.678,425.251 293.5,418.5 Z"/></g>
<g><path style="opacity:1" fill="#1181a0" d="M 290.5,476.5 C 292.065,487.332 293.398,498.332 294.5,509.5C 291.719,498.817 290.386,487.817 290.5,476.5 Z"/></g>
<g><path style="opacity:1" fill="#073a59" d="M 787.5,493.5 C 787.442,501.192 786.109,508.526 783.5,515.5C 784.216,507.929 785.55,500.596 787.5,493.5 Z"/></g>
<g><path style="opacity:1" fill="#094867" d="M 783.5,516.5 C 783.59,519.152 782.924,521.485 781.5,523.5C 781.41,520.848 782.076,518.515 783.5,516.5 Z"/></g>
<g><path style="opacity:1" fill="#0b4f6f" d="M 780.5,527.5 C 780.59,530.152 779.924,532.485 778.5,534.5C 778.41,531.848 779.076,529.515 780.5,527.5 Z"/></g>
<g><path style="opacity:1" fill="#0a4a69" d="M 778.5,534.5 C 778.323,538.708 776.99,542.374 774.5,545.5C 775.462,541.605 776.796,537.939 778.5,534.5 Z"/></g>
<g><path style="opacity:1" fill="#1289a9" d="M 454.5,696.5 C 458.553,697.35 462.553,698.516 466.5,700C 467.056,700.383 467.389,700.883 467.5,701.5C 462.856,700.401 458.522,698.734 454.5,696.5 Z"/></g>
<g><path style="opacity:1" fill="#128bab" d="M 484.5,705.5 C 494.649,706.805 504.649,708.472 514.5,710.5C 504.153,710.109 494.153,708.442 484.5,705.5 Z"/></g>
<g><path style="opacity:1" fill="#8d8f9d" d="M 816.5,782.5 C 807.505,781.287 798.505,781.287 789.5,782.5C 798.506,779.874 807.506,779.874 816.5,782.5 Z"/></g>
<g><path style="opacity:1" fill="#fafafb" d="M 286.5,781.5 C 310.498,782.822 334.498,782.822 358.5,781.5C 359.637,790.422 359.804,799.422 359,808.5C 353.25,809.641 347.416,809.807 341.5,809C 340.556,806.281 340.223,803.448 340.5,800.5C 333.492,800.334 326.492,800.5 319.5,801C 318.167,805.667 318.167,810.333 319.5,815C 326.081,815.187 332.581,815.687 339,816.5C 339.788,822.582 339.621,828.582 338.5,834.5C 332.158,834.334 325.825,834.5 319.5,835C 318.54,838.73 318.207,842.563 318.5,846.5C 326.5,846.5 334.5,846.5 342.5,846.5C 342.5,844.167 342.5,841.833 342.5,839.5C 348.167,839.5 353.833,839.5 359.5,839.5C 359.5,848.5 359.5,857.5 359.5,866.5C 334.833,866.5 310.167,866.5 285.5,866.5C 285.334,860.491 285.501,854.491 286,848.5C 288.719,847.556 291.552,847.223 294.5,847.5C 294.5,831.5 294.5,815.5 294.5,799.5C 291.552,799.777 288.719,799.444 286,798.5C 285.182,792.651 285.348,786.985 286.5,781.5 Z"/></g>
<g><path style="opacity:1" fill="#8b8d9a" d="M 286.5,781.5 C 310.498,781.488 334.498,781.488 358.5,781.5C 334.498,782.822 310.498,782.822 286.5,781.5 Z"/></g>
<g><path style="opacity:1" fill="#898b99" d="M 663.5,782.5 C 653.115,782.214 642.782,782.548 632.5,783.5C 632.611,782.883 632.944,782.383 633.5,782C 643.675,781.175 653.675,781.342 663.5,782.5 Z"/></g>
<g><path style="opacity:1" fill="#f9f9fa" d="M 816.5,782.5 C 817.167,782.5 817.833,782.5 818.5,782.5C 820.509,784.065 822.843,785.065 825.5,785.5C 829.703,787.528 833.536,790.195 837,793.5C 837.5,799.825 837.666,806.158 837.5,812.5C 830.825,812.666 824.158,812.5 817.5,812C 816.833,809 816.167,806 815.5,803C 810.264,801.661 804.93,801.161 799.5,801.5C 796.772,801.171 794.438,801.837 792.5,803.5C 788.833,805.167 786.167,807.833 784.5,811.5C 782.787,812.635 782.12,814.302 782.5,816.5C 780.663,824.068 781.496,831.402 785,838.5C 787.464,841.481 790.297,843.814 793.5,845.5C 796.865,847.039 800.531,847.706 804.5,847.5C 807.355,847.497 810.022,847.164 812.5,846.5C 813.93,845.463 815.597,844.796 817.5,844.5C 818.725,843.848 819.392,842.681 819.5,841C 819.486,839.615 819.152,838.449 818.5,837.5C 811.988,836.833 805.321,836.167 798.5,835.5C 797.186,830.303 797.186,825.136 798.5,820C 812.075,819.178 825.575,819.344 839,820.5C 839.667,831.167 839.667,841.833 839,852.5C 835.459,858.22 830.626,862.22 824.5,864.5C 821.848,864.41 819.515,865.076 817.5,866.5C 807.866,867.392 798.199,867.725 788.5,867.5C 786.316,865.415 783.649,864.415 780.5,864.5C 769.037,859.376 762.037,850.71 759.5,838.5C 758.724,830.525 758.39,822.525 758.5,814.5C 759.526,803.455 764.86,795.122 774.5,789.5C 776.848,789.408 778.514,788.408 779.5,786.5C 782.34,784.085 785.673,782.752 789.5,782.5C 798.505,781.287 807.505,781.287 816.5,782.5 Z"/></g>
<g><path style="opacity:1" fill="#f8f8f9" d="M 199.5,800.5 C 197.167,800.5 194.833,800.5 192.5,800.5C 192.077,802.781 192.744,804.448 194.5,805.5C 198.616,813.068 201.616,821.068 203.5,829.5C 203.674,831.861 204.007,834.194 204.5,836.5C 205.791,836.737 206.791,836.404 207.5,835.5C 211.305,824.751 215.305,814.084 219.5,803.5C 220.404,802.791 220.737,801.791 220.5,800.5C 218.167,800.5 215.833,800.5 213.5,800.5C 212.174,794.432 212.174,788.266 213.5,782C 227.167,781.333 240.833,781.333 254.5,782C 255,782.5 255.5,783 256,783.5C 256.829,788.864 256.663,794.198 255.5,799.5C 252.071,799.907 248.905,800.907 246,802.5C 237.472,824.129 227.972,845.296 217.5,866C 209.812,866.831 202.145,866.665 194.5,865.5C 185.632,844.091 176.465,822.758 167,801.5C 164,800.833 161,800.167 158,799.5C 157.193,793.584 157.359,787.75 158.5,782C 172.167,781.333 185.833,781.333 199.5,782C 200.826,788.266 200.826,794.432 199.5,800.5 Z"/></g>
<g><path style="opacity:1" fill="#f9f9fa" d="M 434.5,800.5 C 431.5,800.5 428.5,800.5 425.5,800.5C 425.171,815.676 425.504,830.676 426.5,845.5C 430.97,846.486 435.637,846.819 440.5,846.5C 442.467,846.739 444.301,846.406 446,845.5C 446.497,843.19 446.663,840.857 446.5,838.5C 446.216,836.585 446.549,834.919 447.5,833.5C 453.833,833.5 460.167,833.5 466.5,833.5C 466.5,844.5 466.5,855.5 466.5,866.5C 442.164,866.667 417.831,866.5 393.5,866C 392.361,860.584 392.194,855.084 393,849.5C 395.456,847.679 398.289,847.012 401.5,847.5C 401.216,831.864 401.549,816.197 402.5,800.5C 399.223,800.784 396.057,800.451 393,799.5C 392.333,793.833 392.333,788.167 393,782.5C 407.092,781.344 421.258,781.177 435.5,782C 436.641,787.75 436.807,793.584 436,799.5C 435.617,800.056 435.117,800.389 434.5,800.5 Z"/></g>
<g><path style="opacity:1" fill="#f9f9fa" d="M 580.5,817.5 C 580.166,820.491 581.166,822.824 583.5,824.5C 584.738,826.214 585.405,828.214 585.5,830.5C 585.166,833.491 586.166,835.824 588.5,837.5C 590.105,840.378 591.439,843.378 592.5,846.5C 594.988,848.388 597.988,849.055 601.5,848.5C 602.49,854.31 602.823,860.31 602.5,866.5C 588.829,866.667 575.163,866.5 561.5,866C 560.365,861.252 560.198,856.419 561,851.5C 562.337,849.996 564.004,848.996 566,848.5C 566.758,846.231 566.591,844.064 565.5,842C 555.833,841.333 546.167,841.333 536.5,842C 535.189,844.274 535.189,846.44 536.5,848.5C 537.474,850.085 538.974,851.085 541,851.5C 541.499,856.155 541.666,860.821 541.5,865.5C 528.006,866.661 514.34,866.827 500.5,866C 499.175,860.068 499.175,854.234 500.5,848.5C 503.518,848.665 506.518,848.498 509.5,848C 510.38,846.644 510.714,845.144 510.5,843.5C 516.519,830.132 522.519,816.798 528.5,803.5C 529.404,802.791 529.737,801.791 529.5,800.5C 526.833,800.5 524.167,800.5 521.5,800.5C 520.51,794.355 520.177,788.022 520.5,781.5C 535.17,781.333 549.837,781.5 564.5,782C 569.974,793.78 575.307,805.614 580.5,817.5 Z"/></g>
<g><path style="opacity:1" fill="#fafafa" d="M 728.5,800.5 C 725.833,800.5 723.167,800.5 720.5,800.5C 720.5,822.167 720.5,843.833 720.5,865.5C 713.58,866.628 706.58,866.795 699.5,866C 688.955,851.744 678.288,837.577 667.5,823.5C 666.502,831.472 666.169,839.472 666.5,847.5C 669.448,847.223 672.281,847.556 675,848.5C 675.807,854.416 675.641,860.25 674.5,866C 660.504,866.5 646.504,866.667 632.5,866.5C 632.334,860.491 632.501,854.491 633,848.5C 636.057,847.549 639.223,847.216 642.5,847.5C 642.667,832.163 642.5,816.83 642,801.5C 639,800.833 636,800.167 633,799.5C 632.501,794.177 632.334,788.844 632.5,783.5C 642.782,782.548 653.115,782.214 663.5,782.5C 672.835,794.674 682.002,807.007 691,819.5C 696.747,826.626 698.581,825.626 696.5,816.5C 696.5,811.167 696.5,805.833 696.5,800.5C 694.901,800.232 693.568,800.566 692.5,801.5C 691.167,801.5 689.833,801.5 688.5,801.5C 688.189,794.91 688.522,788.41 689.5,782C 702.833,781.333 716.167,781.333 729.5,782C 730.641,787.75 730.807,793.584 730,799.5C 729.617,800.056 729.117,800.389 728.5,800.5 Z"/></g>
<g><path style="opacity:1" fill="#fafafa" d="M 912.5,800.5 C 909.833,800.5 907.167,800.5 904.5,800.5C 904.5,816.833 904.5,833.167 904.5,849.5C 907.5,849.5 910.5,849.5 913.5,849.5C 914.833,855.167 914.833,860.833 913.5,866.5C 899.5,866.5 885.5,866.5 871.5,866.5C 871.5,860.833 871.5,855.167 871.5,849.5C 874.385,849.806 877.052,849.473 879.5,848.5C 880.826,832.684 881.492,816.684 881.5,800.5C 878.167,800.5 874.833,800.5 871.5,800.5C 870.174,794.432 870.174,788.266 871.5,782C 885.545,781.184 899.545,781.351 913.5,782.5C 914.663,788.137 914.83,793.804 914,799.5C 913.617,800.056 913.117,800.389 912.5,800.5 Z"/></g>
<g><path style="opacity:1" fill="#787a8a" d="M 818.5,782.5 C 821.346,782.552 823.68,783.552 825.5,785.5C 822.843,785.065 820.509,784.065 818.5,782.5 Z"/></g>
<g><path style="opacity:1" fill="#adafb8" d="M 779.5,786.5 C 778.514,788.408 776.848,789.408 774.5,789.5C 775.659,787.75 777.326,786.75 779.5,786.5 Z"/></g>
<g><path style="opacity:1" fill="#797c8c" d="M 213.5,800.5 C 215.833,800.5 218.167,800.5 220.5,800.5C 220.737,801.791 220.404,802.791 219.5,803.5C 217.844,801.94 215.844,800.94 213.5,800.5 Z"/></g>
<g><path style="opacity:1" fill="#acadb7" d="M 521.5,800.5 C 524.167,800.5 526.833,800.5 529.5,800.5C 529.737,801.791 529.404,802.791 528.5,803.5C 526.492,801.917 524.159,800.917 521.5,800.5 Z"/></g>
<g><path style="opacity:1" fill="#4a4d63" d="M 799.5,801.5 C 797.485,802.924 795.152,803.59 792.5,803.5C 794.438,801.837 796.772,801.171 799.5,801.5 Z"/></g>
<g><path style="opacity:1" fill="#9d9fab" d="M 199.5,800.5 C 197.631,801.165 195.631,801.831 193.5,802.5C 194.127,803.417 194.461,804.417 194.5,805.5C 192.744,804.448 192.077,802.781 192.5,800.5C 194.833,800.5 197.167,800.5 199.5,800.5 Z"/></g>
<g><path style="opacity:1" fill="#070d27" d="M 549.5,807.5 C 551.379,808.897 553.046,810.563 554.5,812.5C 554.5,812.833 554.5,813.167 554.5,813.5C 554.833,816.167 555.167,818.833 555.5,821.5C 552.167,821.5 548.833,821.5 545.5,821.5C 545.5,820.167 545.5,818.833 545.5,817.5C 547.425,814.33 548.758,810.997 549.5,807.5 Z"/></g>
<g><path style="opacity:1" fill="#4e5066" d="M 549.5,807.5 C 550.251,806.427 551.251,806.26 552.5,807C 553.464,808.725 554.131,810.559 554.5,812.5C 553.046,810.563 551.379,808.897 549.5,807.5 Z"/></g>
<g><path style="opacity:1" fill="#393d54" d="M 692.5,801.5 C 693.568,800.566 694.901,800.232 696.5,800.5C 696.5,805.833 696.5,811.167 696.5,816.5C 695.513,811.695 695.179,806.695 695.5,801.5C 694.5,801.5 693.5,801.5 692.5,801.5 Z"/></g>
<g><path style="opacity:1" fill="#a8aab5" d="M 871.5,800.5 C 874.833,800.5 878.167,800.5 881.5,800.5C 881.492,816.684 880.826,832.684 879.5,848.5C 879.5,832.833 879.5,817.167 879.5,801.5C 876.615,801.806 873.948,801.473 871.5,800.5 Z"/></g>
<g><path style="opacity:1" fill="#9395a2" d="M 434.5,800.5 C 432.052,801.473 429.385,801.806 426.5,801.5C 426.5,816.167 426.5,830.833 426.5,845.5C 425.504,830.676 425.171,815.676 425.5,800.5C 428.5,800.5 431.5,800.5 434.5,800.5 Z"/></g>
<g><path style="opacity:1" fill="#7b7d8d" d="M 784.5,811.5 C 784.204,813.403 783.537,815.07 782.5,816.5C 782.12,814.302 782.787,812.635 784.5,811.5 Z"/></g>
<g><path style="opacity:1" fill="#4e5267" d="M 912.5,800.5 C 910.393,801.468 908.059,801.802 905.5,801.5C 905.5,817.167 905.5,832.833 905.5,848.5C 908.385,848.194 911.052,848.527 913.5,849.5C 910.5,849.5 907.5,849.5 904.5,849.5C 904.5,833.167 904.5,816.833 904.5,800.5C 907.167,800.5 909.833,800.5 912.5,800.5 Z"/></g>
<g><path style="opacity:1" fill="#a9abb5" d="M 580.5,817.5 C 582.065,819.509 583.065,821.843 583.5,824.5C 581.166,822.824 580.166,820.491 580.5,817.5 Z"/></g>
<g><path style="opacity:1" fill="#41445b" d="M 554.5,813.5 C 555.999,815.164 556.999,817.164 557.5,819.5C 557.547,821.038 556.88,822.038 555.5,822.5C 551.958,822.813 548.625,822.479 545.5,821.5C 548.833,821.5 552.167,821.5 555.5,821.5C 555.167,818.833 554.833,816.167 554.5,813.5 Z"/></g>
<g><path style="opacity:1" fill="#adaeb8" d="M 545.5,817.5 C 545.5,818.833 545.5,820.167 545.5,821.5C 548.625,822.479 551.958,822.813 555.5,822.5C 552.038,823.482 548.371,823.815 544.5,823.5C 544.205,821.265 544.539,819.265 545.5,817.5 Z"/></g>
<g><path style="opacity:1" fill="#c1c2c9" d="M 758.5,814.5 C 758.39,822.525 758.724,830.525 759.5,838.5C 757.967,834.104 757.3,829.437 757.5,824.5C 757.502,820.982 757.835,817.649 758.5,814.5 Z"/></g>
<g><path style="opacity:1" fill="#a5a6b1" d="M 585.5,830.5 C 587.065,832.509 588.065,834.843 588.5,837.5C 586.166,835.824 585.166,833.491 585.5,830.5 Z"/></g>
<g><path style="opacity:1" fill="#abacb6" d="M 203.5,829.5 C 204.293,831.918 205.626,833.918 207.5,835.5C 206.791,836.404 205.791,836.737 204.5,836.5C 204.007,834.194 203.674,831.861 203.5,829.5 Z"/></g>
<g><path style="opacity:1" fill="#767989" d="M 728.5,800.5 C 726.393,801.468 724.059,801.802 721.5,801.5C 721.831,823.007 721.497,844.34 720.5,865.5C 720.5,843.833 720.5,822.167 720.5,800.5C 723.167,800.5 725.833,800.5 728.5,800.5 Z"/></g>
<g><path style="opacity:1" fill="#b9bac2" d="M 342.5,839.5 C 348.568,838.174 354.734,838.174 361,839.5C 360.349,845.81 360.515,852.144 361.5,858.5C 361.333,860.833 361.167,863.167 361,865.5C 360.617,866.056 360.117,866.389 359.5,866.5C 359.5,857.5 359.5,848.5 359.5,839.5C 353.833,839.5 348.167,839.5 342.5,839.5 Z"/></g>
<g><path style="opacity:1" fill="#d4d5da" d="M 447.5,833.5 C 453.979,832.509 460.646,832.176 467.5,832.5C 467.828,844.012 467.495,855.346 466.5,866.5C 466.5,855.5 466.5,844.5 466.5,833.5C 460.167,833.5 453.833,833.5 447.5,833.5 Z"/></g>
<g><path style="opacity:1" fill="#3a3d55" d="M 446.5,838.5 C 446.663,840.857 446.497,843.19 446,845.5C 444.301,846.406 442.467,846.739 440.5,846.5C 441.568,845.566 442.901,845.232 444.5,845.5C 444.338,843.473 444.505,841.473 445,839.5C 445.383,838.944 445.883,838.611 446.5,838.5 Z"/></g>
<g><path style="opacity:1" fill="#9b9ca8" d="M 818.5,837.5 C 819.152,838.449 819.486,839.615 819.5,841C 819.392,842.681 818.725,843.848 817.5,844.5C 818.369,842.283 818.702,839.95 818.5,837.5 Z"/></g>
<g><path style="opacity:1" fill="#65687a" d="M 338.5,834.5 C 332.681,835.328 326.681,835.828 320.5,836C 319.549,839.057 319.216,842.223 319.5,845.5C 326.833,845.5 334.167,845.5 341.5,845.5C 341.205,843.265 341.539,841.265 342.5,839.5C 342.5,841.833 342.5,844.167 342.5,846.5C 334.5,846.5 326.5,846.5 318.5,846.5C 318.207,842.563 318.54,838.73 319.5,835C 325.825,834.5 332.158,834.334 338.5,834.5 Z"/></g>
<g><path style="opacity:1" fill="#6d6f81" d="M 793.5,845.5 C 799.797,846.32 806.131,846.653 812.5,846.5C 810.022,847.164 807.355,847.497 804.5,847.5C 800.531,847.706 796.865,847.039 793.5,845.5 Z"/></g>
<g><path style="opacity:1" fill="#9ea0ab" d="M 510.5,843.5 C 510.714,845.144 510.38,846.644 509.5,848C 506.518,848.498 503.518,848.665 500.5,848.5C 502.969,847.683 505.635,847.183 508.5,847C 509.085,845.698 509.751,844.531 510.5,843.5 Z"/></g>
<g><path style="opacity:1" fill="#9496a3" d="M 592.5,846.5 C 595.61,847.088 598.61,847.755 601.5,848.5C 597.988,849.055 594.988,848.388 592.5,846.5 Z"/></g>
<g><path style="opacity:1" fill="#999ba7" d="M 536.5,848.5 C 538.722,848.178 540.556,848.845 542,850.5C 542.816,855.684 542.65,860.684 541.5,865.5C 541.666,860.821 541.499,856.155 541,851.5C 538.974,851.085 537.474,850.085 536.5,848.5 Z"/></g>
<g><path style="opacity:1" fill="#9b9da9" d="M 879.5,848.5 C 877.052,849.473 874.385,849.806 871.5,849.5C 871.5,855.167 871.5,860.833 871.5,866.5C 885.5,866.5 899.5,866.5 913.5,866.5C 899.343,867.496 885.01,867.829 870.5,867.5C 870.5,861.167 870.5,854.833 870.5,848.5C 873.5,848.5 876.5,848.5 879.5,848.5 Z"/></g>
<g><path style="opacity:1" fill="#9293a1" d="M 780.5,864.5 C 783.649,864.415 786.316,865.415 788.5,867.5C 785.351,867.585 782.684,866.585 780.5,864.5 Z"/></g>
<g><path style="opacity:1" fill="#5f6275" d="M 824.5,864.5 C 822.485,865.924 820.152,866.59 817.5,866.5C 819.515,865.076 821.848,864.41 824.5,864.5 Z"/></g>
</svg>
